M48
; DRILL file {KiCad 9.0.1} date 2025-07-25T21:26:37-0400
; FORMAT={-:-/ absolute / metric / decimal}
; #@! TF.CreationDate,2025-07-25T21:26:37-04:00
; #@! TF.GenerationSoftware,Kicad,Pcbnew,9.0.1
; #@! TF.FileFunction,Plated,1,2,PTH
FMAT,2
METRIC
; #@! TA.AperFunction,Plated,PTH,ViaDrill
T1C0.300
; #@! TA.AperFunction,Plated,PTH,ComponentDrill
T2C0.813
; #@! TA.AperFunction,Plated,PTH,ComponentDrill
T3C1.000
%
G90
G05
T1
X37.4Y-48.24
X37.66Y-36.16
X39.63Y-109.09
X40.57Y-36.18
X43.62Y-48.22
X44.63Y-118.245
X45.53Y-114.37
X45.87Y-104.34
X46.07Y-85.36
X46.1Y-47.42
X46.26Y-66.08
X48.06Y-128.74
X48.08Y-131.27
X48.38Y-53.39
X48.56Y-38.37
X48.58Y-109.19
X50.19Y-34.65
X50.27Y-123.15
X50.61Y-54.35
X50.73Y-53.0
X55.74Y-49.82
X55.8Y-46.36
X56.62Y-87.67
X56.62Y-91.13
X58.12Y-68.51
X58.16Y-65.67
X58.84Y-130.72
X59.32Y-122.44
X59.63Y-125.33
X59.755Y-130.645
X60.33Y-127.695
X61.43Y-34.6
X62.505Y-126.045
X65.08Y-53.995
X65.18Y-85.445
X65.27Y-112.38
X65.33Y-67.995
X65.53Y-104.695
X65.95Y-130.65
X66.28Y-122.03
X66.38Y-54.71
X66.388Y-60.799
X66.4Y-125.23
X66.45Y-67.49
X67.28Y-106.02
X67.305Y-68.195
X67.38Y-53.97
X68.17Y-112.38
X69.25Y-124.43
X69.37Y-85.82
X69.82Y-66.77
X69.91Y-47.32
X69.93Y-104.21
X70.63Y-127.895
X70.655Y-52.845
X70.73Y-54.795
X71.08Y-91.57
X72.52Y-34.67
X78.46Y-46.81
X78.49Y-49.67
X78.57Y-66.39
X78.62Y-68.89
X79.755Y-86.17
X84.06Y-34.08
X84.305Y-65.695
X84.33Y-52.12
X84.555Y-103.445
X85.388Y-56.024
X85.41Y-64.51
X85.61Y-31.17
X86.11Y-34.27
X86.19Y-129.33
X86.305Y-65.12
X86.555Y-102.72
X86.705Y-50.995
X88.34Y-80.66
X88.64Y-61.37
X88.69Y-118.71
X88.92Y-42.41
X89.07Y-99.78
X89.53Y-89.17
X89.555Y-122.145
X90.39Y-127.08
X94.99Y-29.72
X97.74Y-41.74
X97.79Y-44.37
X98.555Y-119.745
X99.38Y-87.895
X103.355Y-48.345
X103.555Y-98.12
X103.68Y-60.445
X104.33Y-70.3
X104.39Y-64.6
X104.43Y-62.91
X104.446Y-51.299
X105.04Y-29.34
X105.305Y-60.245
X105.33Y-96.72
X106.505Y-85.495
X107.13Y-78.37
X107.55Y-94.61
X107.64Y-37.99
X107.74Y-56.31
X107.74Y-75.99
X107.81Y-113.79
X108.98Y-118.52
X109.97Y-29.04
X110.6Y-25.03
X112.25Y-26.46
X116.39Y-56.02
X116.42Y-58.89
X116.53Y-78.07
X116.56Y-75.48
X116.7Y-37.5
X116.7Y-40.16
X116.705Y-46.07
X117.37Y-94.31
X117.37Y-97.12
X117.405Y-42.545
X118.22Y-51.97
X118.53Y-115.145
X118.78Y-42.42
X120.28Y-28.59
X121.07Y-24.93
X121.255Y-125.12
X121.94Y-49.83
X122.505Y-63.62
X122.58Y-42.495
X122.73Y-101.995
X123.34Y-68.51
X123.38Y-26.75
X123.39Y-56.2
X123.4Y-62.84
X123.496Y-75.139
X124.255Y-63.67
X124.355Y-102.295
X124.5Y-51.9
X125.15Y-49.82
X125.93Y-52.8
X126.44Y-99.62
X126.52Y-61.77
X126.68Y-80.89
X126.97Y-126.03
X127.11Y-118.56
X127.22Y-42.8
X127.955Y-84.545
X128.355Y-49.645
X129.88Y-28.53
X130.16Y-125.85
X136.68Y-49.545
X137.255Y-119.645
X137.305Y-43.995
X137.53Y-81.72
X138.15Y-56.17
X138.35Y-36.8
X139.68Y-28.71
X140.01Y-55.96
X140.05Y-57.02
X141.08Y-126.595
X141.13Y-37.46
X141.43Y-105.92
X141.48Y-128.32
X141.6Y-125.33
X141.68Y-67.42
X141.705Y-51.395
X141.87Y-131.04
X142.5Y-60.6
X142.546Y-41.755
X143.33Y-126.245
X143.37Y-125.31
X143.555Y-107.17
X143.58Y-68.095
X144.155Y-51.345
X144.93Y-126.42
X145.42Y-57.62
X145.84Y-65.96
X146.05Y-127.63
X146.22Y-104.57
X146.28Y-55.03
X146.29Y-85.56
X146.32Y-53.34
X146.34Y-47.36
X147.23Y-33.55
X147.23Y-89.37
X152.58Y-103.37
X154.64Y-140.29
X154.89Y-47.14
X154.9Y-49.96
X155.12Y-65.47
X155.13Y-89.07
X155.18Y-68.55
X155.23Y-91.67
X155.439Y-58.284
X155.855Y-94.145
X156.56Y-61.22
X156.68Y-86.67
X156.91Y-114.3
X157.06Y-118.41
X157.31Y-153.75
X157.555Y-94.17
X158.0Y-33.558
X160.06Y-105.4
X160.28Y-154.3
X160.47Y-58.19
X160.5Y-55.23
X160.51Y-53.32
X160.6Y-39.04
X160.655Y-51.795
X160.81Y-36.07
X160.87Y-85.36
X160.89Y-113.79
X160.912Y-72.445
X161.23Y-118.07
X162.18Y-142.07
X162.23Y-72.695
X162.605Y-51.87
X162.78Y-115.02
X162.905Y-92.445
X163.09Y-83.18
X163.09Y-118.47
X163.32Y-105.51
X163.4Y-55.23
X163.48Y-58.12
X163.56Y-53.24
X163.7Y-113.75
X164.43Y-142.77
X164.58Y-103.52
X164.59Y-47.27
X164.62Y-117.03
X164.78Y-71.24
X165.28Y-154.31
X165.3Y-92.27
X168.12Y-33.8
X168.55Y-108.819
X170.1Y-150.96
X173.96Y-46.73
X173.98Y-49.48
X174.005Y-152.42
X175.505Y-155.2
X178.85Y-34.71
X178.98Y-143.84
X179.38Y-131.295
X180.14Y-56.95
X180.57Y-168.76
X182.41Y-56.45
X182.63Y-131.345
X182.66Y-143.62
X183.23Y-135.77
X184.95Y-137.35
X185.61Y-72.17
X185.64Y-74.33
X186.85Y-127.3
X191.44Y-153.83
X195.92Y-72.01
X196.05Y-84.66
X196.071Y-137.498
X196.27Y-62.48
X196.28Y-60.76
X196.53Y-120.39
X196.56Y-122.07
X196.6Y-146.43
X196.79Y-83.58
X196.82Y-71.95
X197.25Y-62.41
X197.35Y-60.79
X197.46Y-120.41
X197.55Y-122.35
X197.71Y-45.39
X197.74Y-47.03
X197.86Y-71.98
X197.87Y-81.19
X198.67Y-148.3
X198.85Y-80.38
X198.95Y-72.05
X199.66Y-71.28
X199.74Y-78.98
X200.18Y-147.82
X200.305Y-146.17
X200.63Y-71.36
X200.66Y-75.6
X201.405Y-125.452
X201.66Y-71.46
X201.71Y-75.77
X202.16Y-138.06
X207.14Y-131.13
X208.48Y-129.945
X209.53Y-132.47
X210.455Y-131.07
T2
X59.832Y-97.829
X59.832Y-105.449
X61.188Y-41.964
X61.188Y-49.584
X61.203Y-80.579
X61.203Y-88.199
X61.212Y-62.139
X61.212Y-69.759
X63.222Y-121.054
X63.222Y-128.674
X82.263Y-63.614
X82.263Y-71.234
X82.782Y-80.189
X82.782Y-87.809
X82.956Y-119.289
X82.956Y-126.909
X83.188Y-41.614
X83.188Y-49.234
X83.382Y-99.019
X83.382Y-106.639
X100.792Y-115.779
X100.792Y-123.399
X101.472Y-76.989
X101.472Y-84.609
X101.572Y-95.939
X101.572Y-103.559
X102.042Y-56.029
X102.042Y-63.649
X102.262Y-37.689
X102.262Y-45.309
X119.331Y-56.029
X119.331Y-63.649
X119.852Y-92.759
X119.852Y-100.379
X119.982Y-111.704
X119.982Y-119.324
X120.052Y-72.789
X120.052Y-80.409
X120.162Y-36.964
X120.162Y-44.584
X138.532Y-78.149
X138.532Y-85.769
X138.887Y-41.104
X138.887Y-48.724
X139.042Y-59.879
X139.042Y-67.499
X139.132Y-97.009
X139.132Y-104.629
X140.082Y-115.059
X140.082Y-122.679
X156.672Y-123.439
X157.431Y-46.485
X157.431Y-54.105
X157.873Y-156.829
X157.922Y-64.359
X157.922Y-71.979
X158.312Y-83.019
X158.312Y-90.639
X158.892Y-101.199
X158.892Y-108.819
X164.292Y-123.439
X165.492Y-156.829
X166.062Y-84.449
X168.492Y-116.189
X173.683Y-84.449
X176.112Y-116.189
X177.588Y-47.164
X177.588Y-54.784
X178.542Y-65.599
X178.542Y-73.219
X187.542Y-159.339
X195.162Y-159.339
X198.846Y-142.982
X200.062Y-119.729
X206.466Y-142.982
X207.683Y-119.729
T3
X190.43Y-28.52
X190.43Y-31.06
X190.43Y-33.6
X190.43Y-36.14
X190.43Y-38.68
X190.43Y-41.22
X190.43Y-43.76
X190.43Y-46.3
X190.43Y-48.84
X190.43Y-51.38
X190.43Y-53.92
X190.43Y-56.46
X190.43Y-59.0
X190.43Y-61.54
X190.43Y-64.08
X190.43Y-66.62
X210.75Y-38.68
X210.75Y-41.22
X210.75Y-43.76
X210.75Y-46.3
X210.75Y-48.84
X210.75Y-51.38
X210.75Y-53.92
X210.75Y-56.46
X210.75Y-59.0
X210.75Y-61.54
X210.75Y-64.08
X210.75Y-66.62
M30
