M48
; DRILL file {KiCad 9.0.1} date 2025-07-25T21:26:37-0400
; FORMAT={-:-/ absolute / metric / decimal}
; #@! TF.CreationDate,2025-07-25T21:26:37-04:00
; #@! TF.GenerationSoftware,Kicad,Pcbnew,9.0.1
; #@! TF.FileFunction,NonPlated,1,2,NPTH
FMAT,2
METRIC
; #@! TA.AperFunction,NonPlated,NPTH,ComponentDrill
T1C1.750
; #@! TA.AperFunction,NonPlated,NPTH,ComponentDrill
T2C3.050
; #@! TA.AperFunction,NonPlated,NPTH,ComponentDrill
T3C4.000
%
G90
G05
T1
X44.541Y-82.279
X44.542Y-101.339
X44.57Y-44.295
X44.57Y-63.299
X49.301Y-120.414
X54.7Y-82.279
X54.703Y-101.339
X54.73Y-44.295
X54.73Y-63.299
X59.461Y-120.414
X68.351Y-44.295
X68.351Y-82.339
X68.351Y-120.495
X68.367Y-101.414
X68.392Y-63.339
X78.511Y-44.295
X78.511Y-82.339
X78.511Y-120.495
X78.528Y-101.414
X78.552Y-63.339
X87.392Y-58.564
X87.392Y-77.539
X87.401Y-39.532
X87.417Y-115.639
X87.468Y-96.614
X97.552Y-58.564
X97.552Y-77.539
X97.561Y-39.532
X97.578Y-115.639
X97.627Y-96.614
X106.392Y-72.939
X106.442Y-92.014
X106.451Y-34.77
X106.451Y-53.839
X106.517Y-111.064
X116.552Y-72.939
X116.602Y-92.014
X116.611Y-34.77
X116.611Y-53.839
X116.677Y-111.064
X125.468Y-58.589
X125.492Y-96.739
X125.501Y-39.532
X125.501Y-77.679
X125.517Y-115.804
X135.627Y-58.589
X135.653Y-96.739
X135.661Y-39.532
X135.661Y-77.679
X135.677Y-115.804
X144.517Y-63.364
X144.517Y-82.439
X144.542Y-101.464
X144.551Y-44.295
X151.688Y-138.849
X154.677Y-63.364
X154.677Y-82.439
X154.702Y-101.464
X154.711Y-44.295
X157.515Y-130.526
X163.517Y-68.114
X163.601Y-44.295
X167.312Y-149.774
X168.662Y-91.599
X168.662Y-101.759
X173.14Y-141.451
X173.677Y-68.114
X173.761Y-44.295
X177.412Y-168.624
X183.24Y-160.301
X183.69Y-126.376
X188.362Y-152.974
X189.518Y-118.054
X194.19Y-144.651
X199.301Y-137.312
X205.129Y-128.99
T2
X45.81Y-79.739
X45.812Y-98.799
X45.84Y-41.755
X45.84Y-60.759
X50.571Y-117.874
X52.16Y-77.199
X52.162Y-96.259
X52.191Y-39.215
X52.191Y-58.219
X56.921Y-115.334
X69.621Y-41.755
X69.621Y-79.799
X69.621Y-117.955
X69.638Y-98.874
X69.662Y-60.799
X75.971Y-39.215
X75.971Y-77.259
X75.971Y-115.415
X75.987Y-96.334
X76.013Y-58.259
X88.662Y-56.024
X88.662Y-74.999
X88.671Y-36.992
X88.688Y-113.099
X88.737Y-94.074
X95.012Y-53.484
X95.012Y-72.459
X95.021Y-34.453
X95.037Y-110.559
X95.087Y-91.534
X107.662Y-70.399
X107.712Y-89.474
X107.721Y-32.23
X107.721Y-51.299
X107.787Y-108.524
X114.012Y-67.859
X114.062Y-86.934
X114.071Y-29.69
X114.071Y-48.759
X114.137Y-105.984
X126.737Y-56.049
X126.762Y-94.199
X126.771Y-36.992
X126.771Y-75.139
X126.787Y-113.264
X133.088Y-53.509
X133.112Y-91.659
X133.121Y-34.453
X133.121Y-72.599
X133.137Y-110.724
X145.787Y-60.824
X145.787Y-79.899
X145.812Y-98.924
X145.821Y-41.755
X150.335Y-136.352
X151.897Y-129.693
X152.137Y-58.284
X152.137Y-77.359
X152.162Y-96.384
X152.171Y-39.215
X164.787Y-65.574
X164.871Y-41.755
X165.96Y-147.277
X167.522Y-140.618
X171.137Y-63.034
X171.202Y-92.869
X171.221Y-39.215
X173.742Y-99.219
X176.06Y-166.127
X177.622Y-159.468
X182.338Y-123.879
X183.899Y-117.22
X187.01Y-150.477
X188.572Y-143.818
X197.949Y-134.815
X199.511Y-128.157
T3
X49.62Y-82.279
X49.622Y-101.339
X49.651Y-44.295
X49.651Y-63.299
X54.381Y-120.414
X73.431Y-44.295
X73.431Y-82.339
X73.431Y-120.495
X73.447Y-101.414
X73.472Y-63.339
X92.472Y-58.564
X92.472Y-77.539
X92.481Y-39.532
X92.498Y-115.639
X92.547Y-96.614
X111.472Y-72.939
X111.522Y-92.014
X111.531Y-34.77
X111.531Y-53.839
X111.597Y-111.064
X130.547Y-58.589
X130.572Y-96.739
X130.581Y-39.532
X130.581Y-77.679
X130.597Y-115.804
X149.597Y-63.364
X149.597Y-82.439
X149.623Y-101.464
X149.631Y-44.295
X154.601Y-134.687
X168.597Y-68.114
X168.662Y-96.679
X168.681Y-44.295
X170.226Y-145.612
X180.326Y-164.462
X186.604Y-122.215
X191.276Y-148.812
X202.215Y-133.151
M30
