M48
; DRILL file {KiCad 9.0.1} date 2025-07-25T20:29:58-0400
; FORMAT={-:-/ absolute / metric / decimal}
; #@! TF.CreationDate,2025-07-25T20:29:58-04:00
; #@! TF.GenerationSoftware,Kicad,Pcbnew,9.0.1
; #@! TF.FileFunction,NonPlated,1,2,NPTH
FMAT,2
METRIC
; #@! TA.AperFunction,NonPlated,NPTH,ComponentDrill
T1C1.750
; #@! TA.AperFunction,NonPlated,NPTH,ComponentDrill
T2C3.050
; #@! TA.AperFunction,NonPlated,NPTH,ComponentDrill
T3C4.000
%
G90
G05
T1
X38.1Y-126.206
X46.423Y-120.379
X49.027Y-141.811
X53.705Y-115.28
X57.349Y-135.984
X59.953Y-157.416
X62.027Y-109.452
X68.276Y-151.588
X70.095Y-138.687
X72.875Y-34.359
X72.875Y-58.171
X72.875Y-86.746
X78.417Y-132.859
X83.035Y-34.359
X83.035Y-58.171
X83.035Y-86.746
X85.7Y-127.76
X91.925Y-34.359
X91.925Y-53.409
X91.925Y-72.459
X91.925Y-91.509
X94.022Y-121.933
X102.085Y-34.359
X102.085Y-53.409
X102.085Y-72.459
X102.085Y-91.509
X110.975Y-31.978
X110.975Y-51.028
X110.975Y-70.078
X110.975Y-89.128
X110.975Y-108.178
X121.135Y-31.978
X121.135Y-51.028
X121.135Y-70.078
X121.135Y-89.128
X121.135Y-108.178
X130.025Y-29.596
X130.025Y-48.646
X130.025Y-67.696
X130.025Y-86.746
X130.025Y-105.796
X140.185Y-29.596
X140.185Y-48.646
X140.185Y-67.696
X140.185Y-86.746
X140.185Y-105.796
X149.075Y-31.978
X149.075Y-51.028
X149.075Y-70.078
X149.075Y-89.128
X149.075Y-108.178
X159.235Y-31.978
X159.235Y-51.028
X159.235Y-70.078
X159.235Y-89.128
X159.235Y-108.178
X168.125Y-34.359
X168.125Y-53.409
X168.125Y-72.459
X168.125Y-91.509
X168.125Y-110.559
X178.285Y-34.359
X178.285Y-53.409
X178.285Y-72.459
X178.285Y-91.509
X178.285Y-110.559
X187.175Y-110.559
X191.937Y-34.359
X191.937Y-53.409
X191.937Y-72.459
X191.937Y-91.509
X197.335Y-110.559
X202.097Y-34.359
X202.097Y-53.409
X202.097Y-72.459
X202.097Y-91.509
T2
X37.683Y-123.397
X41.428Y-117.674
X48.61Y-139.002
X52.355Y-133.279
X53.288Y-112.471
X57.033Y-106.748
X59.537Y-154.607
X63.281Y-148.884
X69.678Y-135.878
X73.423Y-130.155
X74.145Y-31.819
X74.145Y-55.631
X74.145Y-84.206
X80.495Y-29.279
X80.495Y-53.091
X80.495Y-81.666
X85.283Y-124.951
X89.028Y-119.228
X93.195Y-31.819
X93.195Y-50.869
X93.195Y-69.919
X93.195Y-88.969
X99.545Y-29.279
X99.545Y-48.329
X99.545Y-67.379
X99.545Y-86.429
X112.245Y-29.438
X112.245Y-48.488
X112.245Y-67.538
X112.245Y-86.588
X112.245Y-105.638
X118.595Y-26.898
X118.595Y-45.948
X118.595Y-64.998
X118.595Y-84.048
X118.595Y-103.098
X131.295Y-27.056
X131.295Y-46.106
X131.295Y-65.156
X131.295Y-84.206
X131.295Y-103.256
X137.645Y-24.516
X137.645Y-43.566
X137.645Y-62.616
X137.645Y-81.666
X137.645Y-100.716
X150.345Y-29.438
X150.345Y-48.488
X150.345Y-67.538
X150.345Y-86.588
X150.345Y-105.638
X156.695Y-26.898
X156.695Y-45.948
X156.695Y-64.998
X156.695Y-84.048
X156.695Y-103.098
X169.395Y-31.819
X169.395Y-50.869
X169.395Y-69.919
X169.395Y-88.969
X169.395Y-108.019
X175.745Y-29.279
X175.745Y-48.329
X175.745Y-67.379
X175.745Y-86.429
X175.745Y-105.479
X188.445Y-108.019
X193.207Y-31.819
X193.207Y-50.869
X193.207Y-69.919
X193.207Y-88.969
X194.795Y-105.479
X199.557Y-29.279
X199.557Y-48.329
X199.557Y-67.379
X199.557Y-86.429
T3
X42.261Y-123.292
X53.188Y-138.897
X57.866Y-112.366
X64.115Y-154.502
X74.256Y-135.773
X77.955Y-34.359
X77.955Y-58.171
X77.955Y-86.746
X89.861Y-124.846
X97.005Y-34.359
X97.005Y-53.409
X97.005Y-72.459
X97.005Y-91.509
X116.055Y-31.978
X116.055Y-51.028
X116.055Y-70.078
X116.055Y-89.128
X116.055Y-108.178
X135.105Y-29.596
X135.105Y-48.646
X135.105Y-67.696
X135.105Y-86.746
X135.105Y-105.796
X154.155Y-31.978
X154.155Y-51.028
X154.155Y-70.078
X154.155Y-89.128
X154.155Y-108.178
X173.205Y-34.359
X173.205Y-53.409
X173.205Y-72.459
X173.205Y-91.509
X173.205Y-110.559
X192.255Y-110.559
X197.017Y-34.359
X197.017Y-53.409
X197.017Y-72.459
X197.017Y-91.509
M30
