M48
; DRILL file {KiCad 9.0.1} date 2025-07-25T20:29:58-0400
; FORMAT={-:-/ absolute / metric / decimal}
; #@! TF.CreationDate,2025-07-25T20:29:58-04:00
; #@! TF.GenerationSoftware,Kicad,Pcbnew,9.0.1
; #@! TF.FileFunction,Plated,1,2,PTH
FMAT,2
METRIC
; #@! TA.AperFunction,Plated,PTH,ViaDrill
T1C0.300
; #@! TA.AperFunction,Plated,PTH,ComponentDrill
T2C0.813
; #@! TA.AperFunction,Plated,PTH,ComponentDrill
T3C1.000
%
G90
G05
T1
X41.3Y-128.29
X44.28Y-137.62
X44.3Y-131.14
X45.57Y-137.57
X50.91Y-123.4
X51.4Y-124.97
X51.64Y-148.23
X52.71Y-143.71
X52.81Y-122.0
X56.65Y-117.01
X58.96Y-128.61
X59.67Y-129.41
X59.81Y-162.32
X61.42Y-139.08
X63.39Y-159.14
X63.67Y-120.55
X63.82Y-101.7
X66.22Y-131.9
X66.43Y-120.58
X66.99Y-142.21
X67.73Y-65.93
X67.75Y-69.79
X67.75Y-101.75
X67.8Y-130.89
X68.55Y-69.82
X68.7Y-66.03
X69.37Y-41.06
X69.75Y-51.21
X69.77Y-50.25
X69.79Y-49.05
X69.88Y-35.36
X69.96Y-47.65
X70.01Y-68.8
X70.04Y-67.95
X70.05Y-45.16
X70.07Y-67.05
X70.79Y-82.06
X70.85Y-69.81
X71.85Y-36.33
X71.85Y-69.07
X71.87Y-45.55
X71.9Y-49.0
X72.06Y-68.22
X72.08Y-67.2
X72.1Y-50.13
X72.12Y-47.72
X72.13Y-51.21
X72.15Y-147.53
X73.21Y-140.8
X73.62Y-91.05
X73.621Y-121.381
X74.09Y-61.03
X74.32Y-119.82
X74.33Y-149.17
X74.53Y-37.21
X75.69Y-117.35
X76.0Y-43.74
X76.22Y-112.74
X76.25Y-107.69
X76.56Y-23.36
X78.07Y-118.99
X79.13Y-119.08
X80.24Y-117.84
X83.94Y-109.81
X84.67Y-61.23
X84.75Y-108.67
X84.86Y-92.41
X85.41Y-40.01
X86.44Y-23.77
X86.51Y-111.29
X86.65Y-67.18
X88.01Y-80.19
X88.14Y-109.59
X88.28Y-96.53
X88.52Y-47.44
X88.7Y-129.28
X88.77Y-48.42
X88.88Y-46.38
X88.94Y-42.61
X88.98Y-65.95
X89.01Y-44.24
X89.15Y-62.22
X89.18Y-80.86
X89.86Y-78.63
X89.9Y-71.51
X89.92Y-88.969
X89.92Y-81.76
X90.54Y-94.76
X90.71Y-45.83
X90.71Y-80.82
X90.83Y-79.37
X90.92Y-46.94
X90.97Y-47.95
X90.97Y-65.2
X91.05Y-41.02
X91.08Y-43.66
X91.71Y-81.64
X93.1Y-95.491
X93.19Y-101.5
X93.41Y-56.58
X93.71Y-75.69
X93.87Y-37.28
X94.96Y-62.25
X95.56Y-100.901
X96.56Y-23.51
X96.72Y-104.79
X98.02Y-106.49
X99.63Y-106.86
X99.69Y-104.82
X101.14Y-43.43
X101.89Y-56.59
X102.04Y-59.1
X102.15Y-117.98
X102.23Y-63.25
X102.33Y-61.06
X103.13Y-116.86
X103.54Y-44.28
X103.81Y-38.79
X103.98Y-119.83
X104.1Y-60.96
X104.6Y-118.61
X106.35Y-113.78
X106.61Y-101.67
X107.05Y-119.77
X107.06Y-99.72
X107.2Y-62.54
X107.2Y-64.19
X107.9Y-78.95
X107.91Y-80.99
X107.94Y-42.6
X107.94Y-43.67
X107.94Y-59.73
X108.01Y-117.18
X108.09Y-45.61
X108.13Y-44.54
X108.18Y-76.09
X108.97Y-67.538
X109.1Y-48.25
X109.76Y-23.26
X109.77Y-76.12
X109.81Y-44.35
X109.86Y-63.21
X109.87Y-45.52
X109.92Y-43.52
X110.01Y-38.71
X110.11Y-78.94
X110.17Y-42.57
X110.2Y-80.96
X110.26Y-115.36
X110.88Y-40.36
X111.59Y-99.51
X112.02Y-92.2
X112.12Y-110.93
X112.14Y-44.75
X112.22Y-34.97
X112.83Y-72.6
X112.98Y-53.98
X113.78Y-99.47
X114.09Y-59.73
X120.77Y-99.51
X121.0Y-61.86
X121.02Y-92.32
X121.04Y-94.9
X121.11Y-59.44
X121.33Y-53.95
X121.4Y-98.73
X121.42Y-56.55
X122.55Y-59.39
X122.56Y-21.86
X122.62Y-36.34
X122.68Y-98.64
X123.11Y-99.55
X126.86Y-43.17
X126.92Y-78.24
X126.94Y-74.23
X127.03Y-42.25
X127.05Y-59.21
X127.26Y-38.25
X128.78Y-41.97
X128.87Y-38.25
X128.88Y-59.18
X129.01Y-43.13
X129.03Y-78.22
X129.14Y-74.1
X129.19Y-36.2
X129.98Y-97.63
X130.5Y-99.4
X131.12Y-51.87
X131.43Y-108.73
X131.61Y-41.54
X131.66Y-70.7
X131.7Y-32.5
X131.88Y-89.0
X134.57Y-100.38
X135.08Y-97.62
X137.46Y-96.68
X138.93Y-97.16
X139.67Y-20.31
X140.92Y-95.82
X140.92Y-97.14
X140.93Y-111.26
X140.96Y-109.02
X140.98Y-92.48
X141.59Y-33.88
X142.08Y-53.61
X143.02Y-91.0
X143.78Y-97.804
X144.58Y-40.01
X144.71Y-43.62
X145.98Y-78.73
X146.03Y-39.64
X146.12Y-53.98
X146.12Y-97.1
X146.22Y-51.5
X146.32Y-75.12
X146.47Y-62.08
X146.69Y-101.2
X147.99Y-75.93
X148.0Y-40.64
X148.02Y-52.78
X148.05Y-78.77
X148.07Y-97.1
X148.08Y-37.92
X148.54Y-39.72
X149.85Y-55.06
X149.99Y-74.39
X150.12Y-91.98
X150.26Y-34.9
X150.44Y-110.84
X152.45Y-62.04
X152.87Y-101.78
X152.89Y-98.14
X153.81Y-22.16
X157.02Y-39.89
X157.06Y-54.34
X157.07Y-42.11
X158.95Y-98.28
X159.53Y-40.39
X160.03Y-42.04
X160.45Y-36.41
X163.68Y-43.05
X163.7Y-100.55
X164.8Y-62.86
X165.13Y-61.5
X165.23Y-76.39
X167.0Y-76.91
X167.07Y-22.31
X167.11Y-45.25
X167.17Y-61.55
X167.23Y-62.82
X167.33Y-81.23
X167.36Y-39.8
X167.45Y-43.62
X169.43Y-61.61
X169.45Y-56.61
X169.48Y-37.0
X169.77Y-94.91
X169.77Y-114.24
X169.85Y-75.43
X170.91Y-100.19
X171.12Y-61.63
X173.33Y-99.77
X175.84Y-61.11
X175.88Y-63.69
X178.04Y-24.11
X178.37Y-61.98
X178.46Y-60.82
X178.64Y-97.73
X178.72Y-101.6
X178.73Y-94.48
X178.84Y-99.76
X179.55Y-38.47
X180.14Y-63.52
X180.35Y-99.72
X180.41Y-101.59
X180.45Y-60.93
X188.81Y-63.54
X188.84Y-62.27
X188.88Y-73.67
X188.95Y-24.22
X188.96Y-45.2
X189.16Y-43.83
X189.23Y-80.22
X189.24Y-113.52
X189.26Y-78.23
X189.932Y-82.1
X190.69Y-80.27
X190.78Y-43.81
X190.81Y-63.52
X190.82Y-62.34
X190.88Y-45.08
X190.99Y-74.2
X191.16Y-40.21
X191.32Y-78.24
X192.93Y-75.51
X193.3Y-94.65
X193.48Y-62.36
X193.94Y-37.3
X194.06Y-56.4
X194.96Y-62.479
X200.66Y-24.37
X201.49Y-114.03
X202.12Y-100.69
X202.85Y-94.83
X202.86Y-96.81
X202.95Y-56.62
X202.97Y-58.68
X203.04Y-61.27
X203.12Y-62.64
X203.29Y-99.6
X203.89Y-76.59
X205.1Y-99.61
X205.24Y-61.71
X210.76Y-28.19
X210.82Y-24.28
X211.79Y-82.07
T2
X50.295Y-119.149
X54.665Y-125.391
X59.944Y-134.948
X64.315Y-105.719
X64.315Y-141.19
X68.685Y-111.961
X70.85Y-148.75
X75.221Y-154.992
X81.565Y-131.399
X85.935Y-137.641
X86.7Y-55.51
X86.7Y-63.13
X86.81Y-83.74
X86.81Y-91.36
X86.89Y-35.02
X86.89Y-42.64
X97.305Y-119.429
X101.675Y-125.671
X105.4Y-71.39
X105.4Y-79.01
X105.48Y-90.43
X105.48Y-98.05
X105.5Y-53.21
X105.5Y-60.83
X105.7Y-35.03
X105.7Y-42.65
X123.855Y-51.668
X123.855Y-59.288
X124.48Y-107.53
X124.48Y-115.15
X124.59Y-88.33
X124.59Y-95.95
X124.68Y-32.39
X124.68Y-40.01
X124.79Y-70.63
X124.79Y-78.25
X142.905Y-104.886
X142.905Y-112.506
X143.32Y-29.82
X143.32Y-37.44
X143.39Y-87.0
X143.39Y-94.62
X143.53Y-68.05
X143.53Y-75.67
X143.955Y-51.54
X143.955Y-59.16
X161.955Y-89.768
X161.955Y-97.388
X162.43Y-70.82
X162.43Y-78.44
X162.55Y-32.35
X162.55Y-39.97
X162.67Y-108.12
X162.67Y-115.74
X162.81Y-51.38
X162.81Y-59.0
X181.005Y-34.999
X181.005Y-42.619
X181.005Y-110.35
X181.005Y-117.97
X181.54Y-72.59
X181.54Y-80.21
X181.58Y-91.36
X181.58Y-98.98
X181.99Y-53.21
X181.99Y-60.83
X200.79Y-110.53
X200.79Y-118.15
X205.74Y-34.73
X205.74Y-42.35
X205.97Y-90.29
X205.97Y-97.91
X206.0Y-51.51
X206.0Y-59.13
X206.14Y-71.14
X206.14Y-78.76
T3
X41.31Y-25.82
X41.31Y-28.36
X41.31Y-30.9
X41.31Y-33.44
X41.31Y-35.98
X41.31Y-38.52
X41.31Y-41.06
X41.31Y-43.6
X41.31Y-46.14
X41.31Y-48.68
X41.31Y-51.22
X41.31Y-53.76
X41.31Y-56.3
X41.31Y-58.84
X41.31Y-61.38
X41.31Y-63.92
X61.63Y-35.98
X61.63Y-38.52
X61.63Y-41.06
X61.63Y-43.6
X61.63Y-46.14
X61.63Y-48.68
X61.63Y-51.22
X61.63Y-53.76
X61.63Y-56.3
X61.63Y-58.84
X61.63Y-61.38
X61.63Y-63.92
M30
